<?xml version="1.0" standalone="no"?>
<!DOCTYPE svg PUBLIC "-//W3C//DTD SVG 20010904//EN"
 "http://www.w3.org/TR/2001/REC-SVG-20010904/DTD/svg10.dtd">
<svg version="1.0" xmlns="http://www.w3.org/2000/svg"
 width="960.000000pt" height="960.000000pt" viewBox="0 0 960.000000 960.000000"
 preserveAspectRatio="xMidYMid meet">
<metadata>
Created by potrace 1.11, written by Peter Selinger 2001-2013
</metadata>
<g transform="translate(0.000000,960.000000) scale(0.100000,-0.100000)"
fill="#000000" stroke="none">
<path d="M3740 9074 c-6 -14 -10 -27 -10 -29 0 -2 -5 -16 -12 -32 -6 -15 -12
-30 -13 -33 -2 -6 -8 -21 -34 -95 -10 -27 -24 -66 -31 -85 -7 -19 -19 -50 -27
-69 -8 -18 -16 -39 -17 -45 -2 -13 -42 -122 -56 -151 -5 -11 -19 -49 -30 -85
-12 -36 -28 -78 -36 -95 -7 -16 -39 -100 -70 -185 -31 -85 -61 -166 -67 -180
-6 -14 -11 -29 -13 -35 -2 -11 -61 -168 -74 -200 -4 -11 -38 -101 -75 -200
-36 -99 -69 -187 -72 -195 -4 -8 -7 -17 -8 -20 -1 -3 -4 -12 -7 -20 -3 -8 -29
-78 -57 -155 -29 -77 -55 -147 -58 -155 -3 -8 -7 -17 -8 -20 -1 -3 -5 -14 -9
-25 -4 -11 -12 -31 -17 -45 -5 -14 -14 -38 -20 -55 -7 -16 -13 -32 -13 -35 -1
-3 -9 -25 -19 -50 -9 -25 -41 -110 -71 -190 -30 -80 -60 -158 -67 -175 -6 -16
-13 -35 -13 -40 -1 -6 -13 -42 -28 -80 -29 -77 -38 -102 -37 -111 0 -3 -7 -16
-15 -30 -9 -13 -14 -24 -10 -24 4 0 2 -6 -3 -12 -6 -7 -18 -38 -28 -68 -10
-30 -22 -61 -28 -67 -5 -7 -7 -13 -4 -13 3 0 -9 -37 -27 -82 -18 -46 -34 -87
-36 -93 -1 -5 -6 -19 -11 -30 -22 -58 -111 -299 -114 -309 -1 -6 -7 -24 -14
-41 -55 -137 -121 -318 -121 -333 0 -6 -5 -12 -11 -12 -5 0 -8 -4 -5 -8 2 -4
-1 -21 -8 -37 -28 -65 -57 -141 -61 -157 -2 -9 -9 -26 -15 -37 -6 -12 -8 -21
-4 -21 3 0 2 -6 -3 -12 -6 -7 -18 -37 -27 -65 -10 -29 -22 -55 -27 -59 -5 -3
-7 -10 -3 -15 3 -5 1 -15 -4 -22 -5 -7 -24 -55 -42 -107 -18 -52 -37 -101 -43
-107 -5 -7 -7 -13 -4 -13 3 0 -5 -24 -17 -52 -13 -29 -27 -68 -30 -85 -4 -18
-12 -35 -17 -38 -5 -4 -9 -12 -9 -20 0 -8 -5 -26 -12 -42 -6 -15 -12 -30 -13
-33 -1 -3 -5 -12 -8 -20 -4 -8 -16 -40 -26 -70 -11 -30 -32 -86 -46 -125 -15
-38 -28 -74 -29 -80 -2 -5 -8 -21 -14 -35 -6 -14 -41 -106 -77 -205 -36 -99
-68 -187 -72 -195 -3 -8 -7 -19 -9 -25 -1 -5 -19 -53 -39 -105 -20 -52 -38
-99 -39 -105 -2 -11 -62 -170 -76 -200 -11 -26 -52 -137 -54 -150 -1 -5 -7
-20 -14 -32 -7 -12 -12 -31 -12 -42 0 -12 -4 -21 -10 -21 -5 0 -9 -3 -8 -7 1
-5 -6 -30 -16 -58 -11 -27 -29 -77 -41 -110 -13 -33 -26 -69 -30 -80 -5 -11
-9 -23 -10 -27 -2 -5 -4 -10 -5 -13 -1 -3 -3 -8 -5 -12 -1 -5 -6 -19 -12 -33
-6 -14 -18 -47 -27 -74 -9 -27 -31 -85 -48 -130 -58 -155 -85 -228 -87 -238
-1 -5 -12 -33 -26 -63 -13 -31 -24 -58 -24 -61 1 -5 -17 -56 -32 -89 -5 -11
-21 -54 -35 -95 -15 -41 -31 -86 -37 -100 -5 -14 -11 -29 -13 -35 -3 -13 -119
-322 -135 -360 -7 -16 -13 -33 -13 -37 -1 -3 -4 -10 -8 -14 -5 -4 -8 -14 -8
-23 0 -9 -13 -47 -28 -86 -29 -71 -43 -108 -43 -112 -1 -3 -27 -75 -104 -278
-37 -99 -68 -186 -68 -192 0 -7 -4 -13 -9 -13 -4 0 -8 -5 -8 -11 0 -7 -29 -91
-65 -187 -36 -96 -65 -178 -65 -183 0 -5 423 -8 997 -7 876 3 996 5 999 18 2
14 88 277 101 310 4 8 7 18 8 23 2 4 4 9 5 12 1 3 3 8 4 13 11 42 31 100 39
110 5 7 7 15 4 19 -4 3 -1 15 5 27 7 11 13 24 14 29 1 4 2 8 4 10 1 1 3 9 5
18 2 14 57 178 73 219 3 8 6 18 7 23 2 4 3 8 5 10 1 1 3 9 5 17 3 15 131 402
142 430 4 8 7 18 8 23 2 4 3 8 5 10 1 1 3 9 5 17 3 14 51 159 62 190 4 8 7 18
8 23 2 4 3 8 5 10 1 1 3 9 5 17 8 36 93 282 100 288 9 9 3256 10 3276 1 13 -6
41 -75 39 -94 0 -3 7 -19 15 -35 8 -16 16 -33 16 -37 2 -10 4 -17 25 -83 10
-30 19 -57 19 -60 1 -3 4 -12 8 -20 5 -14 29 -88 32 -100 1 -3 4 -12 7 -20 17
-45 21 -56 24 -68 1 -8 6 -21 10 -30 4 -9 8 -21 9 -27 2 -5 28 -84 59 -175 31
-91 59 -172 61 -180 2 -8 16 -49 30 -90 14 -41 28 -82 30 -91 2 -8 11 -33 20
-55 9 -21 16 -41 17 -44 1 -9 5 -21 58 -180 29 -85 53 -159 55 -165 1 -5 7
-23 13 -38 7 -15 15 -40 18 -55 4 -15 10 -31 15 -37 4 -5 8 -14 8 -20 1 -13
19 -69 38 -122 l16 -43 993 0 c547 0 994 3 994 8 0 6 -31 93 -47 132 -3 8 -7
17 -7 20 -1 3 -11 31 -24 63 -12 31 -31 83 -43 115 -12 31 -25 66 -29 77 -4
11 -18 47 -30 80 -12 33 -26 69 -30 80 -4 11 -21 56 -38 100 -16 44 -37 100
-46 125 -10 25 -46 124 -82 220 -36 96 -69 184 -74 195 -5 11 -17 40 -25 65
-15 41 -40 109 -79 215 -8 22 -20 54 -27 70 -7 17 -13 33 -14 38 -2 4 -4 9 -5
12 -1 3 -3 9 -4 14 0 5 -4 13 -8 17 -5 4 -8 13 -8 21 0 7 -9 32 -19 56 -16 36
-43 111 -46 127 0 3 -6 14 -12 25 -13 25 -43 117 -42 129 0 5 -3 12 -8 15 -4
3 -17 31 -27 61 -10 30 -24 69 -32 85 -7 17 -24 62 -38 100 -51 145 -85 235
-99 267 -12 27 -36 94 -42 118 -1 3 -6 16 -12 30 -30 70 -183 489 -183 499 0
6 -4 11 -8 11 -5 0 -9 6 -9 13 0 10 -122 341 -168 457 -8 19 -37 98 -65 175
-28 77 -56 151 -62 165 -5 14 -50 133 -99 265 -49 132 -93 249 -98 260 -10 22
-52 134 -56 150 -3 14 -15 44 -30 80 -15 33 -45 114 -48 130 -2 6 -5 15 -8 20
-10 17 -33 90 -31 98 1 4 -3 7 -8 7 -6 0 -10 10 -10 23 0 13 -4 27 -8 33 -5 5
-19 38 -31 74 -13 36 -27 74 -31 85 -5 11 -18 47 -30 80 -13 33 -26 69 -31 80
-12 30 -90 238 -93 250 -2 6 -8 24 -15 40 -14 33 -34 88 -77 210 -16 44 -33
83 -38 86 -5 4 -5 12 -2 18 4 6 2 11 -3 11 -6 0 -10 3 -9 8 0 4 -1 14 -5 22
-3 8 -29 78 -57 155 -28 77 -55 149 -60 160 -5 11 -32 83 -60 160 -66 180 -91
245 -101 270 -4 11 -22 58 -39 105 -17 47 -35 94 -40 105 -5 11 -32 83 -60
160 -28 77 -62 168 -76 203 -13 35 -43 114 -65 175 -37 102 -58 158 -80 212
-33 83 -112 301 -112 312 0 7 -4 13 -9 13 -4 0 -8 5 -8 12 0 9 -70 204 -107
298 -4 8 -7 17 -8 20 -4 12 -17 47 -26 68 -5 13 -25 67 -45 120 -36 100 -64
174 -85 227 -7 17 -13 32 -14 35 -1 3 -6 20 -10 38 -4 17 -11 32 -15 32 -4 0
-10 13 -13 30 -4 16 -15 49 -26 72 -10 24 -21 52 -23 63 -3 20 -12 20 -876 23
l-872 2 -10 -26z m954 -2493 c37 -109 68 -207 71 -217 2 -11 11 -37 20 -59 10
-22 24 -62 32 -90 8 -27 18 -59 23 -70 5 -11 23 -65 40 -120 17 -55 35 -109
40 -120 5 -11 14 -38 21 -60 6 -22 15 -49 19 -60 16 -39 23 -60 25 -70 2 -5
13 -41 26 -80 13 -38 24 -72 24 -75 1 -3 4 -12 8 -20 3 -8 20 -58 37 -110 40
-120 41 -125 41 -125 -1 0 22 -65 50 -145 28 -80 52 -152 54 -160 2 -8 34
-103 70 -210 37 -107 69 -206 72 -220 3 -14 9 -29 13 -35 9 -12 24 -67 22 -77
-1 -5 3 -8 10 -8 6 0 9 -3 6 -6 -3 -3 23 -88 57 -190 35 -101 65 -188 66 -192
3 -11 5 -18 59 -181 29 -84 53 -158 54 -165 1 -6 7 -20 13 -31 6 -11 12 -23
12 -27 3 -16 9 -35 31 -98 23 -69 40 -125 43 -150 2 -13 -130 -15 -1130 -15
-623 0 -1133 0 -1133 1 0 2 18 55 39 118 22 64 37 116 34 116 -3 0 -1 6 4 13
8 10 39 97 48 132 1 6 7 23 13 38 7 16 12 34 12 41 0 7 3 16 7 20 4 3 8 12 9
19 1 7 34 109 74 227 39 118 74 222 75 230 2 8 13 38 23 67 11 28 17 54 14 57
-3 3 -1 6 5 6 5 0 10 6 11 13 1 17 8 44 33 112 11 33 22 65 23 70 1 6 13 42
26 80 13 39 25 72 25 75 1 3 4 12 8 20 6 15 30 91 32 100 3 12 27 85 80 240
31 91 58 172 60 180 4 19 64 199 75 225 5 11 95 282 201 603 106 320 195 582
199 582 4 0 37 -89 74 -199z"/>
</g>
</svg>
